# xmcd
#
# Track frame offsets: 
#        150
#        15007
#        24965
#        40955
#        56185
#        74267
#        95477
#        109370
#        121462
#        135975
#        148282
#        170230
#
# Disc length: 2387 seconds
#
# Revision: 3
# Processed by: cddbd v1.5.2PL0 Copyright (c) Steve Scherf et al.
# Submitted via: ExactAudioCopy v0.99pb5
#
DISCID=a909510c
DTITLE=Glenn Kaiser - Bound For Glory
DYEAR=2006
DGENRE=Blues
TTITLE0=God's Not Dead
TTITLE1=I've Been Redeemed
TTITLE2=Since I Laid My Burdens Down
TTITLE3=Softly And Tenderly
TTITLE4=This Train
TTITLE5=At The Cross
TTITLE6=Go Tell It On The Mountain
TTITLE7=There Is No One
TTITLE8=I've Got That Joy
TTITLE9=All Hail The Power
TTITLE10=I'll Fly Away
TTITLE11=Doxology
EXTD=
EXTT0=
EXTT1=
EXTT2=
EXTT3=
EXTT4=
EXTT5=
EXTT6=
EXTT7=
EXTT8=
EXTT9=
EXTT10=
EXTT11=
PLAYORDER=
